<?xml version="1.0" encoding="utf-8"?>
<!-- Generator: Adobe Illustrator 18.0.0, SVG Export Plug-In . SVG Version: 6.00 Build 0)  -->
<!DOCTYPE svg PUBLIC "-//W3C//DTD SVG 1.1//EN" "http://www.w3.org/Graphics/SVG/1.1/DTD/svg11.dtd">
<svg version="1.1" id="Layer_1" xmlns="http://www.w3.org/2000/svg" xmlns:xlink="http://www.w3.org/1999/xlink" x="0px" y="0px"
	 viewBox="0 0 382.3 382.3" enable-background="new 0 0 382.3 382.3" xml:space="preserve">
<g>
	<path d="M191.2,0C85.8,0,0,85.8,0,191.2c0,105.4,85.8,191.2,191.2,191.2s191.2-85.8,191.2-191.2C382.3,85.8,296.6,0,191.2,0z"/>
	<g>
		<path fill="#FFFFFF" d="M191.2,377.6C88.4,377.6,4.8,294,4.8,191.2C4.8,88.4,88.4,4.8,191.2,4.8s186.4,83.6,186.4,186.4
			C377.6,294,294,377.6,191.2,377.6z M191.2,6.3C89.2,6.3,6.3,89.2,6.3,191.2S89.2,376,191.2,376S376,293.1,376,191.2
			S293.1,6.3,191.2,6.3z"/>
	</g>
</g>
<path fill="#FFFFFF" stroke="#000000" stroke-width="0.25" stroke-miterlimit="10" d="M233.5,76.5l-0.4,0.6
	c-4.1,7.4-12.7,15.3-17.2,15.9c-1.6,0.2-1.8-1.7-1.8-2.5c0-1.4,0.4-3.2,1.1-4.7c4.6-1.7,13.6-6.1,13.6-10.1c0-1.9-1.4-2.9-3.8-2.6
	c-5.3,0.7-12,7.1-14.6,13.1c-3.5,4.3-8,8.8-10.8,9.2c-0.1,0-0.3,0-0.3-0.5c0-1.2,2.1-4.1,3.9-6.7c2.4-3.3,4.6-6.5,4.6-8.6
	c0-2.6-1.6-4-4.2-3.6c-2.4,0.3-4.7,1.9-6.9,3.9l14.4-23.1l-4.5,0.8c0,0,0,0,0,0c-0.4,0.1-2.7,0.4-3.3,0.6c-0.8,0.2-4.7,0.7-6.6,0.9
	c-1.8,0.2-3.9,0.3-6.2,0.6c-26.3,3.5-35.6,13.6-35.6,21.1c0,2.1,0.7,3.9,2,5.1c1.7,1.6,4.4,2.2,7.8,1.8c8-1.1,14.3-6.9,14.3-13.3
	c0-0.7,0-1.3-0.1-2.1l-0.1-0.8l-2.2,0.3l0.1,0.7c0.1,0.7,0.1,1.4,0.1,2.1c0,4.5-4.6,9.9-12.1,10.9c-0.7,0.1-1.4,0.1-2,0.1
	c-3.7,0-5.6-1.6-5.6-4.8c0-6.2,8.6-13.6,27.8-16.1c1.6-0.2,3.5-0.4,5.3-0.5c0.4,0,0.8-0.1,1.2-0.1c-5.9,3.7-10.1,11-14.2,18.1
	c-5.3,9.2-10.3,17.9-18.4,19c-0.6,0.1-1.1,0.1-1.6,0.1c-1.4,0-4.4-0.3-5.1-2.9c1.3-0.3,2.3-1.4,2.3-2.8c0-1.6-1.2-2.7-2.9-2.5
	c-1.9,0.3-3.3,1.9-3.3,4c0,2.2,0.9,4,2.7,5.1c1.8,1.1,4,1.4,5.5,1.4c0.7,0,1.4,0,2.1-0.1c8-1.1,14.9-6.5,20.8-16.5
	c1.8-3,3.3-5.8,4.7-8.2c5.7-10.1,8.3-14.8,16.1-15.8c0.9-0.1,1.7-0.2,2.4-0.3c-2.9,4.9-7.4,12.3-10.3,17.3
	c-3.7,6.2-7.5,12.4-11,18.4l-0.8,1.4l5.5-0.7l0.2-0.4c2.6-5.8,12.4-19.8,17.2-20.4c0.6-0.1,0.8,0,0.8,0.5c0,1-1.8,3.4-3.3,5.5
	c-2.4,3.3-5.1,7-5.1,9.7c0,1.1,0.3,2,0.9,2.7c0.7,0.8,1.8,1.1,3.1,1c2.9-0.4,6.4-3.5,9.6-7c0,0.1,0,0.2,0,0.3c0,3,1.7,4.7,4.6,4.7
	c0.3,0,0.7,0,1.1-0.1c7.4-1,16.5-11,20-17.5l0.4-0.7L233.5,76.5z M216.6,83.2c1.9-3.3,5.4-7.4,7.6-7.7c0,0,0.1,0,0.1,0
	c0.2,0,0.4,0,0.4,0.6C224.7,78.7,220.1,81.7,216.6,83.2z"/>
<g>
	<g>
		<path fill="#FFFFFF" d="M106.2,217.6c-4,3.2-7.9,6.2-11.7,9.2c-0.3,0.3-1,0.4-1.2,0.3c-0.6-0.4-0.4-0.8-0.3-1.2
			c0.8-2.1-0.4-3.1-1.7-4.1c-3.7-2.7-7.9-3.1-12.6-0.7c-1.6,0.8-3,2-3.2,3.9c-0.3,2,0.8,3.2,2.4,3.8c3.6,1.4,7.4,2.5,11.1,3.8
			c3.3,1.2,6.7,2.3,9.8,3.9c10.1,5.2,12,13.1,7.5,25.1c-2.4,6.3-7,10.7-13.3,13c-8.1,3-16,3.5-23.4,0.2c-3.6-1.6-6.3-4.4-8-8
			c-0.5-1-0.4-1.8,0.6-2.7c3.5-3.2,7-6.4,10.5-9.6c0.5-0.4,1.2-1.1,1.7-0.8c0.5,0.3,0.4,1.1,0.2,1.6c-0.5,1.8,0.2,3,1.2,4.1
			c3.3,3.4,8.3,4.2,12.9,1.9c3.8-1.9,5.2-7.4,2.3-9.7c-2.1-1.6-4.6-2.8-7.2-3.8c-4.5-1.7-9.2-2.9-13.6-4.8c-4.5-1.9-8-5.1-9.5-10
			c-2.5-8,1.7-17.5,10.1-22.6c6.9-4.2,14.2-5.8,21.6-4.9C99.2,206.7,103.2,211.4,106.2,217.6z"/>
		<path fill="#FFFFFF" d="M199.5,245.2c-4.8,0.6-9.5,1.2-14.2,1.9c-0.5,0.1-1.2,0.9-1.4,1.4c-0.9,3.2-1.6,6.4-2.6,9.6
			c-0.3,1.2-0.3,1.9,0.6,2.6c0.4,0.3,0.7,1,0.5,1.5c-0.2,0.7-0.9,0.6-1.4,0.7c-4.8,0.7-9.6,1.3-14.3,1.9c-0.5,0.1-0.8-0.2-1.1-0.5
			c-0.2-0.1-0.1-0.7,0.1-1.2c0.7-1.6,1.6-3.1,2.1-4.7c5.2-19.8,10.4-39.7,15.6-59.5c0.3-1.2,0.8-2.5-0.2-3.6c-0.9-0.9-0.3-1.7,1-1.9
			c5.2-0.7,10.4-1.4,15.6-2.1c1.5-0.2,1.3,0.6,1,1.8c-0.3,1-0.6,2.3-0.3,3.2c5.2,18.9,10.5,37.9,15.8,56.8c0.3,1.1,1.2,2,1.8,3
			c0.2,0.4,0.6,0.6,0.4,1.4c-0.1,0.6-0.7,0.6-1.2,0.7c-5,0.7-10,1.4-14.9,2c-0.4,0-1-0.2-1.1-0.5c-0.1-0.3,0.1-1,0.4-1.3
			c1.2-1,1.1-2.1,0.7-3.3C201.5,251.8,200.5,248.5,199.5,245.2z M191.9,217.4c-1.5,5.8-2.8,11-4.1,16.2c3-0.4,5.6-0.7,8.5-1.1
			C194.8,227.5,193.4,222.7,191.9,217.4z"/>
		<path fill="#FFFFFF" d="M132.4,213.3c-4.1,0.5-8,1-11.9,1.6c-0.6,0.1-2.7,1.9-3.2,2.2c-0.3-0.5-0.8-1-0.8-1.6
			c-0.1-2.7,0-5.4,0-8.1c0-5.1,0-5.1,5-5.7c12.7-1.7,25.4-3.3,38.2-5.1c2-0.3,2.5,0.2,2.5,2.2c-0.1,3.5-0.1,7-0.1,10.5
			c0,1.3-0.1,1.4-0.6,1.8c-0.5-0.2-3.5-1.2-4.5-1.1c-3.5,0.3-7,0.9-10.7,1.4c0,0.9,0,1.7,0,2.5c0,16,0,32,0,48.1
			c0,1.4,0.1,2.6,1.2,3.5c0.3,0.2,0.6,1,0.4,1.3c-0.2,0.4-0.9,0.6-1.4,0.7c-4.8,0.7-9.6,1.3-14.3,1.9c-0.5,0.1-1,0.3-1.4-0.6
			c-0.3-0.6,0.1-0.9,0.4-1.3c1.1-1.1,1.2-2.3,1.2-3.6c0-16,0-32,0-48.1C132.4,215.1,132.4,214.4,132.4,213.3z"/>
		<path fill="#FFFFFF" d="M247,240.9c6.7-0.9,13.2-1.7,19.7-2.7c0.7-0.1,1.4-0.8,2-1.4c1.1-1,1.8-0.6,1.8,0.5
			c0.1,4.2,0.1,8.3,0,12.5c0,1.3-1.1,1.4-2.1,1.5c-5.2,0.7-10.5,1.4-15.7,2.1c-6.4,0.8-12.8,1.7-19.2,2.5c-0.7,0.1-1.7,0.3-2-0.3
			c-0.3-0.6,1.6-1.9,1.6-4.1c0-20.1,0-40.3,0-60.4c0-0.8-0.6-1.4-1-2.1c-0.2-0.4-0.7-0.9-0.6-1.3c0.1-0.3,0.8-0.7,1.3-0.8
			c4.8-0.7,9.7-1.3,14.5-1.9c0.5-0.1,1.2,0.1,1.3,0.4c0.1,0.3-0.3,0.9-0.5,1.4c-0.4,1-1.2,2-1.2,2.9c-0.1,16.4-0.1,32.9,0,49.3
			C247,239.7,247,240.1,247,240.9z"/>
		<path fill="#FFFFFF" d="M300,233.9c6.8-0.9,13.3-1.7,19.9-2.7c0.6-0.1,1.3-0.8,1.8-1.3c1.1-1.1,1.9-0.9,1.9,0.4
			c0.1,4.2,0.1,8.3,0,12.5c0,1.3-1.2,1.4-2.1,1.5c-8.7,1.2-17.5,2.3-26.2,3.5c-3,0.4-5.9,0.8-8.9,1.2c-0.6,0.1-1.5,0.2-1.8-0.3
			c-0.3-0.5,1.6-1.9,1.6-4.3c0.1-19.9,0.1-40,0-59.9c0-1.1-0.7-1.5-1.1-2.3c-0.2-0.4-0.6-1-0.4-1.3c0.1-0.3,0.7-0.7,1.1-0.7
			c4.9-0.7,9.8-1.3,14.7-2c0.5-0.1,1.1,0.1,1.3,0.5c0.2,0.6-0.2,1-0.5,1.2c-1.3,1.2-1.3,2.5-1.3,4c0,15.8,0,31.6,0,47.4
			C300,232,300,232.8,300,233.9z"/>
	</g>
	<g id="ZXhlKA_4_">
		<g>
			<path fill="#FFFFFF" d="M60.1,187.1c0.1-3.5,0.3-6.9,0.3-10.3c0-9.3,0-18.6,0-28c0-2.6-0.2-5.2-0.4-8c2.3-0.3,4.9-0.7,7.5-0.9
				c0.4,0,1,0.7,1.2,1.2c2.8,6,5.6,12,8.5,18.2c0.3-0.6,0.6-1,0.8-1.4c2.6-6.3,5.3-12.7,7.8-19c0.5-1.2,1.1-1.7,2.3-1.8
				c2.2-0.2,4.5-0.6,6.4-0.8c-0.1,3.4-0.3,6.6-0.3,9.9c0,9.6,0,19.1,0,28.7c0,2.5,0.2,5,0.4,7.7c-2.7,0.4-5.7,0.8-8.4,1.1
				c0.8-9.6,0.1-19,0-28.6c-2.1,5.3-4.2,10.6-6.3,15.9c-0.2,0.5-1.1,0.6-1.3,0.6c-3.7,0.5-3.7,0.6-5.3-3.2c-1.6-3.6-3.2-7.2-5-10.8
				c0.2,9.5-0.7,19.1,0.4,28.5C65.8,186.4,62.7,186.8,60.1,187.1z"/>
			<path fill="#FFFFFF" d="M266.2,113.6c2.2-0.3,4.7-0.7,7.2-0.9c0.5,0,1.1,0.6,1.4,1.2c3.3,7.7,6.5,15.5,9.8,23.2
				c0.1,0.4,0.3,0.7,0.7,1c0-8.9,0.6-18-0.2-26.8c2.7-0.4,5.8-0.8,8.5-1.1c-0.1,3.1-0.3,6.3-0.3,9.3c0,9.6,0,19.1,0,28.7
				c0,2.7,0.3,5.4,0.4,8.3c-2.3,0.3-4.9,0.7-7.5,0.9c-0.4,0-1-0.6-1.2-1.1c-3.4-7.9-6.7-15.9-10-23.9c-0.1-0.2-0.2-0.4-0.5-0.6
				c0.1,9-0.5,18,0.2,27c-2.7,0.4-5.7,0.8-8.3,1.1c0.1-5.2,0.2-10.4,0.2-15.5c0-6.8,0-13.6,0-20.4
				C266.5,120.5,266.3,117.1,266.2,113.6z"/>
			<path fill="#FFFFFF" d="M156.5,174.4c-2.9,0.4-6,0.8-9.2,1.2c1.3-4.6-1.9-13.1-2.4-15.4c-0.4-1.6-1.3-1.8-2.8-1.5
				c-1.6,0.4-1.5,1.5-1.5,2.6c0,2.3,0,4.5,0,6.8c0.1,2.7,0.2,5.4,0.4,8.2c-2.7,0.4-5.7,0.8-8.7,1.1c1.2-6.8,0.4-13.3,0.6-20
				c0.1-5.5,0.1-10.9,0-16.4c0-3.3-0.2-6.5-0.3-9.9c0.1,0,0.5-0.1,1-0.2c5.8-0.8,11.5-1.5,17.3-2.3c2.1-0.3,5.2,2.4,5.2,4.5
				c0,5.6-0.1,11.3,0.1,16.9c0.1,2-0.3,3.7-2,5c-1.7,1.4-1.9,2.9-1.4,4.8C154.1,164.8,155.3,169.6,156.5,174.4z M140.6,144.6
				c0,1.7,0,3.3,0,5c0,1.2,0.5,1.6,1.7,1.5c1.5-0.2,2.9-0.4,4.4-0.6c1.1-0.1,1.7-0.7,1.7-1.9c0-3.3,0.1-6.6-0.1-9.9
				c0-0.6-1-1.4-1.6-1.4c-1.4-0.1-3,0.1-4.4,0.6c-0.6,0.2-1.5,1.2-1.6,1.8C140.5,141.3,140.6,142.9,140.6,144.6z"/>
			<path fill="#FFFFFF" d="M174,153.5c-5.2,6.2-4.5,12.6-3.3,19c-3,0.4-6,0.8-9,1.2c1.2-7.2,0.4-14.2,0.6-21.3
				c0.1-7.1,0.1-14.2,0-21.3c0-1.2-0.4-2.3-0.7-3.6c3-0.4,6.1-0.8,9.1-1.2c-1.4,6.4-0.3,12.5-0.3,18.8c0.9-1.7,1.8-3.5,2.8-5.2
				c2.1-4.1,4.3-8.1,6.4-12.2c0.4-0.8,0.5-1.7,0.8-2.7c3.1-0.4,6.4-0.9,9.9-1.3c-1.6,2.6-3.1,5.2-4.6,7.8c-2.1,3.7-4.1,7.5-6,11.3
				c-0.3,0.7-0.4,1.7-0.2,2.3c2.9,6.9,5.8,13.7,8.9,20.5c0.7,1.5,1.9,2.7,2.9,4.1c-3.6,0.5-7.1,0.9-10.2,1.3c-0.3-1.5-0.5-2.9-1-4.1
				C178.1,162.5,176,158,174,153.5z"/>
			<path fill="#FFFFFF" d="M314.4,121.5c0.2-1.7,0.5-3.3,0.7-4.8c0.1-1.3-0.5-1.9-1.8-1.7c-1.3,0.2-2.7,0.4-4,0.5
				c-1.3,0.1-1.9,0.9-1.9,2.2c0,9,0,18,0,27c0,1.3,0.5,2,1.9,1.8c1.3-0.2,2.7-0.2,4-0.6c0.6-0.2,1.6-1.1,1.7-1.6
				c0.2-2.6,0.1-5,0.1-7.7c-2.2,0-2.5-0.7-2.7-2.1c-0.3-1.8-0.7-3.5-1.2-5.3c4.1-0.5,8.2-1.1,12.3-1.6c-1.3,6.9-0.3,13.6-0.7,20.4
				c-0.1,0.9-0.5,2-1.1,3c-1.2,1.9-3.4,2.4-5.5,2.6c-3.5,0.3-7.1,0.8-10.7,1.4c-1.4,0.2-2.3-0.2-3.4-0.9c-2-1.4-2.5-3.2-2.5-5.7
				c0.1-11.2,0.1-22.5,0.1-33.7c0-2.3,3-5.8,5.4-6.1c4.2-0.6,8.5-1.1,12.7-1.7c1.9-0.2,5.1,2.6,5.1,4.4c0.1,3,0.2,6,0.3,9.2
				C320.4,120.7,317.4,121.1,314.4,121.5z"/>
			<path fill="#FFFFFF" d="M128.8,178.1c-3.1,0.4-6.2,0.8-9.3,1.2c0.9-3.2-0.7-5.6-1.3-8.3c-0.1-0.5-1.2-1-1.9-1
				c-1.8,0.1-3.7,0.3-5.5,0.7c-0.7,0.2-1.8,1-2.1,1.6c-0.7,2.1-1.1,4.3-1.5,6.4c-0.1,0.7,0.2,1.4,0.3,2.1c-3.1,0.4-6.1,0.8-8.8,1.2
				c3.3-14.6,6.7-29.1,10-43.7c0.2-0.7,0.2-1.4,0.1-2c-0.1-0.6-0.3-1.1-0.5-1.8c3.5-0.5,6.8-0.9,10.1-1.3c-0.9,5.1,1.3,9.4,2.3,13.9
				c2,9.1,4.3,18.1,6.6,27.1C127.7,175.6,128.3,176.7,128.8,178.1z M113.7,147.8c-0.1,0-0.2,0-0.3,0c-0.7,3.7-1.5,7.3-2.2,11
				c-0.8,4.2-0.8,4.1,3.4,3.6c1.5-0.2,2-0.8,1.7-2.2C115.4,156.1,114.6,151.9,113.7,147.8z"/>
			<path fill="#FFFFFF" d="M217.4,120.1c0.5,2.8,0.9,5.4,1.3,7.6c-4.8,0.6-9.5,1.1-14.2,1.7c-1.1,0.1-1.7,0.8-1.7,1.9
				c0,2.6,0,5.3,0,7.9c0,1.2,0.6,1.8,1.8,1.5c1.9-0.4,3.9-0.9,5.9-1.4c0,2.9,0,5.9,0,8.9c-1.9,0.1-3.9,0.1-5.8,0.2
				c-1.3,0.1-1.9,0.7-1.9,2.1c0,2.6,0,5.3,0,7.9c0,1.5,0.7,2,2.1,1.8c4.5-0.7,9-1.3,13.7-2c-0.4,2.3-0.8,5.1-1.2,8
				c-7.7,1-15.3,2-22.9,3c1.2-7.3,0.4-14.3,0.6-21.5c0.1-5,0.1-9.9,0-14.9c0-3.3-0.2-6.5-0.3-9.8C202,122.1,209.6,121.1,217.4,120.1
				z"/>
			<path fill="#FFFFFF" d="M220.8,127.5c0.4-2.4,0.3-3.9,0.8-6.4c0.1-0.3,0.2-1.6,1.3-1.7c2.3-0.4,4.1-0.6,6.7-0.9
				c5.3-0.7,10.5-1.4,15.8-2.1c1-0.1,1.5,0,1.7,1.1c0.3,2.3,0.8,4.4,1.2,6.6c-2.7,0.2-5.3,0.5-7.9,0.7c-1.4,0.1-2.1,0.7-2.1,2.3
				c0,10.9,0.1,21.9,0.2,32.8c0.1,1.3,0.4,2,0.6,3.7c-3.1,0.4-6.2,0.8-8.9,1.2c0.1-3.6,0.3-7.2,0.3-10.7c0-8.5,0-17,0-25.6
				c0-1.8-0.6-2.4-2.4-2C225.7,126.9,223.5,127,220.8,127.5z"/>
			<path fill="#FFFFFF" d="M260.2,114.4c-0.1,3-0.3,5.9-0.3,8.8c0,9.6,0,19.1,0,28.7c0,2.9,0.2,5.8,0.3,8.8
				c-2.7,0.4-5.7,0.8-8.3,1.1c0.1-3.7,0.3-7.4,0.3-11c0-8.8,0-17.5,0-26.3c0-3-0.2-5.9-0.3-8.9C254.5,115.2,257.5,114.8,260.2,114.4
				z"/>
		</g>
	</g>
	<path fill="#FFFFFF" d="M59.8,131.1l263-34.8v-2.9L59.9,128.2C59.9,129.2,59.9,130.1,59.8,131.1z"/>
	<path fill="#FFFFFF" d="M59.7,200.5l263.1-34.8v-2.9l-263,34.8C59.8,198.5,59.8,199.5,59.7,200.5z"/>
	<path fill="#FFFFFF" d="M60.6,292l262.8-34.8v-2.9L60.7,289.1C60.7,290.1,60.7,291.1,60.6,292z"/>
</g>
<g>
	<path fill="#FFFFFF" d="M221,284l-10.2,17.5c-0.1-0.4-0.3-0.8-0.7-1.2c-0.6-0.6-1.4-0.9-2.5-0.7c-3.9,0.5-9.3,5.8-11.3,10.3
		c-2.9,3.4-6,6.1-8.1,6.4c-0.1,0-0.2,0-0.4,0c-0.9,0-1-0.4-1-0.8c0-1.2,1.2-3.2,3.3-6.7c0.9-1.6,2.1-3.5,3.4-5.8l5.5-0.7l0.6-1.4
		l-5.3,0.7l3.2-5.2l-3.5,0.4l-3.2,5.2l-2.3,0.3l-0.6,1.4l2.1-0.3c-0.7,1.1-1.3,2.2-2,3.3c-0.1,0.1-0.2,0.3-0.3,0.4c-1,1-1.9,2-3,3
		c-3.5,3.5-7.1,7.2-10.1,10.9c-0.7-2.5-2.7-3.8-5.8-3.5c5.6-3.6,9-9.6,12.3-15.3c0.5-0.8,0.9-1.7,1.4-2.5c0.6,0,1.2-0.1,2-0.2
		c7.9-1,14.2-6.4,14.2-10.3c0-2.1-1.4-3.1-3.8-2.8c-5.7,0.7-11.5,6.5-14.9,12c-3.2,0-5.6-2-5.6-4.7c0-1.7,1.4-3.6,3.5-3.9
		c1.1-0.1,2,0.1,2.4,0.2l0.4,0.1l0.4-1.2l-0.4-0.1c-0.8-0.3-1.9-0.4-2.9-0.3c-2.6,0.3-4.7,2.7-4.7,5.2c0,3.7,3,5.6,6.1,5.9
		c-0.9,1.5-1.7,3-2.5,4.4c-3.5,6.3-6.5,11.8-10.6,13.6c-0.2,0.1-0.6,0.1-1.1,0.2c-4.7,0.8-7.2,1.5-7.2,2.7c0,0.3,0.2,0.6,0.5,0.7
		c0.3,0.2,0.7,0.2,1.2,0.2c1.3-0.2,2.9-0.8,4.1-1.4c0.5-0.3,2.1-1,2.7-1.1c0.3,0,0.6-0.1,0.9-0.1c2.8,0,4.5,1.6,4.5,4.3
		c0,0.4-0.2,0.7-0.5,1c-0.2,0.3-0.5,0.7-0.5,1.2c0,0.5,0.4,0.8,0.8,0.8l0.1,0c1.2-0.2,2.3-1.8,2.9-3.4c2.2-2.9,6.7-7.6,10.7-11.7
		c-0.7,1.4-1.2,2.6-1.2,3.6c0,0.9,0.3,1.7,0.9,2.2c0.5,0.5,1.3,0.8,2.1,0.8c0.2,0,0.3,0,0.5,0c2.4-0.3,5-2.4,7.6-5.2
		c0,0.3-0.1,0.5-0.1,0.7c0,0.8,0.3,1.6,0.8,2.2c0.5,0.6,1.3,0.9,2.2,0.9c0.2,0,0.3,0,0.5,0c2.3-0.3,4.3-2.2,5.9-4.1
		c-0.1,0.3-0.1,0.6-0.1,0.9c0,0.6,0.2,1.1,0.6,1.5c0.5,0.5,1.3,0.7,2.4,0.5c1.7-0.2,3.8-1.8,6.4-4.8c2.4-2.8,4.6-6,5.5-7.9l0.2-0.4
		l-1.1-0.4l-0.2,0.3c-1.6,2.7-3.7,5.7-5.7,7.9c-2.3,2.6-4,3.8-5.3,4c-0.1,0-0.4,0-0.4-0.5c0-1.8,4.9-9.7,9.6-17.3
		c2.5-4,5.1-8.2,7.3-11.9l0.4-0.7L221,284z M199.9,314.4c-0.1,0-0.1,0-0.2,0c-0.3,0-0.9,0-0.9-1.4c0-3.7,5.9-11.7,8.8-12
		c0.1,0,0.2,0,0.3,0c0.7,0,1.1,0.3,1.1,1.9C209.1,305.8,202.5,314.1,199.9,314.4z M184.9,298.3c-0.5,0.1-1,0.1-1.4,0.1
		c2.7-4.7,7.1-10.1,11.4-10.7c0.1,0,0.3,0,0.4,0c1.1,0,1.6,0.6,1.6,1.7C196.9,294.2,189.8,297.7,184.9,298.3z M171.9,325.9
		L171.9,325.9L171.9,325.9L171.9,325.9z"/>
	<path fill="#FFFFFF" d="M218.6,309.7c-1,0.1-1.9,1.1-1.9,2.1c0,1,0.8,1.7,1.7,1.7c0.1,0,0.2,0,0.2,0c1-0.1,1.9-1.1,1.9-2.1
		C220.6,310.3,219.7,309.5,218.6,309.7z"/>
</g>
</svg>
